<?xml version="1.0" encoding="UTF-8"?>
<svg id="_圖層_1" xmlns="http://www.w3.org/2000/svg" version="1.1" xmlns:xlink="http://www.w3.org/1999/xlink" viewBox="0 0 437.3 117.3">
  <!-- Generator: Adobe Illustrator 30.0.0, SVG Export Plug-In . SVG Version: 2.1.1 Build 123)  -->
  <defs>
    <style>
      .st0, .st1 {
        fill: #fff;
      }

      .st2 {
        fill: url(#_未命名漸層);
      }

      .st3 {
        fill: #fff697;
      }

      .st1 {
        stroke: #fff;
        stroke-width: .8px;
      }
    </style>
    <linearGradient id="_未命名漸層" data-name="未命名漸層" x1="0" y1="782.7" x2="162.7" y2="782.7" gradientTransform="translate(0 -724)" gradientUnits="userSpaceOnUse">
      <stop offset="0" stop-color="#3ebeef"/>
      <stop offset=".5" stop-color="#00a0e8"/>
      <stop offset="1" stop-color="#008cd6"/>
    </linearGradient>
  </defs>
  <g>
    <path class="st2" d="M155.8,4.2c-4.6-3-11.8-4.8-22.1-4-32.5,2.5-32.2,18.8-35.6,39.5-3.1,19-6.9-34-58.4-23.8-1.1.2-2.1.5-3,.9-5.6-.9-12.5,3.6-16.6,11.3-3,5.6-3.7,11.5-2.3,16-4.8,2-8.8,8.2-9.8,15.8s-.2,7.5.8,10.6c-5.6,1.9-9.3,9.7-8.8,18.6.7,8.9,5.4,15.9,11.1,17.1,3,6.7,8.5,10.8,15.4,11.1,12.9.6,24.7-6.4,23.5-14-1.1-7.6,4.3-12.6,15.5-10.4,11.3,2.3,14.5,7.8,24.8,17.4,10.6,9.8,30.3,7.6,37.8-7.8,1.6-3.2.6-14.6,1.9-28,0-.9.2-1.8.3-2.7.4-3.1.9-6.2,1.6-9.4.2-.8.4-1.7.6-2.5,1.1-4.1,2.5-8.2,4.4-12.2,4-8.3,10.2-15.7,19.7-20.9,7.1-3.8,8.8-16-1.2-22.6h.4Z"/>
    <g>
      <path class="st3" d="M151.8,4.9c-11.3,3.4-38.7,12.3-31.2,23.2,5.5,8,9.3,15.3,13.5,19.6,4-8.3,10-15.8,19.5-21.1,7.1-3.9,10.9-16.5-1.8-21.7Z"/>
      <path class="st3" d="M129.3,62.5c.2-.8.4-1.7.6-2.5-5.8-2.4-10.8-6.7-10.8-6.7-1.7,3.6,6,7.4,10.2,9.2Z"/>
      <path class="st3" d="M127.5,74.6c0-.9.2-1.8.3-2.7-4.8-2.4-8.5-5.7-8.5-5.7-1.4,3.1,4,6.4,8.3,8.3h-.1Z"/>
    </g>
    <g>
      <path class="st0" d="M146.7,71.8h-4.1v-6.7h4.1v6.7ZM142.6,107.9v-32.3h4.1v32.3s-4.1,0-4.1,0Z"/>
      <path class="st0" d="M179.2,85.5c-1.3-2.3-2.8-4.1-4.6-5.2s-4-1.7-6.5-1.7-6.1,1.3-8.5,3.8c-2.3,2.5-3.5,5.6-3.5,9.4s1.2,6.8,3.5,9.3,5.2,3.7,8.6,3.7,4.7-.6,6.6-1.8c1.9-1.2,3.4-3,4.4-5.2h4.6c-1.3,3.5-3.2,6.2-5.9,8.1s-5.8,2.9-9.5,2.9-8.6-1.7-11.8-5-4.8-7.3-4.8-12,1.6-8.8,4.9-12.1c3.3-3.3,7.2-5,11.9-5s6.6.9,9.3,2.8,4.7,4.5,6,8h-4.7Z"/>
      <path class="st0" d="M221.5,93.1h-29.1c.3,3.5,1.5,6.3,3.8,8.5s5.1,3.2,8.6,3.2,4.6-.6,6.5-1.9,3.4-3,4.5-5.2h4.7c-1.5,3.6-3.6,6.3-6.3,8.2-2.7,1.9-5.8,2.9-9.3,2.9s-8.7-1.7-11.9-5-4.9-7.4-4.9-12.1,1.6-9,4.8-12.2,7.2-4.8,12.2-4.8,8.8,1.7,11.9,5c3.1,3.3,4.6,7.7,4.6,13v.3h-.1ZM216.9,89.5c-.8-3.6-2.2-6.3-4.3-8.1-2.1-1.8-4.8-2.7-8.2-2.7s-5.8,1-7.9,2.9c-2.2,1.9-3.5,4.6-4,7.9,0,0,24.4,0,24.4,0Z"/>
      <path class="st0" d="M277.9,76.2c-1.9-2.7-4.1-4.6-6.4-5.9-2.4-1.3-5.1-1.9-8.1-1.9-4.8,0-8.8,1.8-12.2,5.3s-5.1,7.7-5.1,12.6,1.7,9.5,5,13.1c3.4,3.5,7.4,5.3,12.2,5.3s5.6-.6,8-1.8c2.4-1.2,4.5-3.1,6.2-5.5h5c-2,3.6-4.6,6.4-7.9,8.4s-7,3-11.1,3c-6.3,0-11.5-2.1-15.7-6.4s-6.3-9.6-6.3-16,.6-5.8,1.7-8.5c1.1-2.7,2.8-5.1,5-7.2,2-2,4.3-3.6,6.8-4.6s5.3-1.6,8.2-1.6c4.2,0,8.1,1,11.5,3.1s6.1,5,8.1,8.8h-5v-.2h0Z"/>
      <path class="st0" d="M315.6,102.8c-1.3,1.9-3,3.3-5.2,4.4s-4.6,1.6-7.1,1.6c-4.7,0-8.7-1.6-11.8-4.9-3.1-3.2-4.7-7.2-4.7-12s1.6-8.9,4.8-12.1,7.2-4.9,12.1-4.9,4.8.5,6.8,1.5c2.1,1,3.8,2.5,5.2,4.4v-5.2h4v32.3h-4v-5.1h0ZM315.6,91.5c0-3.4-1.2-6.4-3.7-9-2.4-2.6-5.3-3.8-8.4-3.8s-6.4,1.3-8.8,3.8c-2.4,2.6-3.7,5.7-3.7,9.5s1.2,6.6,3.6,9.1,5.3,3.7,8.7,3.7,6.1-1.3,8.6-3.9c2.4-2.6,3.7-5.8,3.7-9.4h0Z"/>
      <path class="st0" d="M330.3,107.9h-4.2v-32.3h3.9v3.7c1-1.4,2.1-2.5,3.3-3.1,1.2-.7,2.6-1,4.2-1.1v4.5c-2.6.2-4.4,1-5.6,2.3-1.1,1.3-1.7,3.5-1.7,6.4v19.5h.1Z"/>
      <path class="st0" d="M372.9,93.1h-29.1c.3,3.5,1.5,6.3,3.8,8.5s5.1,3.2,8.6,3.2,4.6-.6,6.5-1.9,3.4-3,4.5-5.2h4.7c-1.5,3.6-3.6,6.3-6.3,8.2-2.7,1.9-5.8,2.9-9.3,2.9s-8.7-1.7-11.9-5c-3.2-3.3-4.9-7.4-4.9-12.1s1.6-9,4.8-12.2c3.2-3.2,7.2-4.8,12.2-4.8s8.8,1.7,11.9,5,4.6,7.7,4.6,13v.3h-.1ZM368.3,89.5c-.8-3.6-2.2-6.3-4.3-8.1-2.1-1.8-4.8-2.7-8.2-2.7s-5.8,1-7.9,2.9c-2.2,1.9-3.5,4.6-4,7.9,0,0,24.4,0,24.4,0Z"/>
      <path class="st0" d="M409.3,93.1h-29.1c.3,3.5,1.5,6.3,3.8,8.5s5.1,3.2,8.6,3.2,4.6-.6,6.5-1.9,3.4-3,4.5-5.2h4.7c-1.5,3.6-3.6,6.3-6.3,8.2-2.7,1.9-5.8,2.9-9.3,2.9s-8.7-1.7-11.9-5c-3.2-3.3-4.9-7.4-4.9-12.1s1.6-9,4.8-12.2c3.2-3.2,7.2-4.8,12.2-4.8s8.8,1.7,11.9,5,4.6,7.7,4.6,13v.3h-.1ZM404.7,89.5c-.8-3.6-2.2-6.3-4.3-8.1-2.1-1.8-4.8-2.7-8.2-2.7s-5.8,1-7.9,2.9c-2.2,1.9-3.5,4.6-4,7.9,0,0,24.4,0,24.4,0Z"/>
      <path class="st0" d="M418.1,107.9h-4.2v-32.3h3.9v3.7c1-1.4,2.1-2.5,3.3-3.1,1.2-.7,2.6-1,4.2-1.1v4.5c-2.6.2-4.4,1-5.6,2.3-1.1,1.3-1.7,3.5-1.7,6.4v19.5h.1Z"/>
    </g>
    <g>
      <path class="st1" d="M310.5,25.7h3.4v-2.8h2.1v2.8h5v1.8h-5v2.8h5.6v1.8h-3.5v3.1l3.4-1.7v1.9c-.6.3-1.5.8-2.8,1.4-.8.4-1.6.8-2.3,1.2l-.7-1.6c.3-.3.4-1,.4-2v-2.2h-3.1c-.4,1.5-.9,2.7-1.6,3.5-1.1,1.3-2.5,2.4-4.2,3.3-.2-.4-.5-1-1.2-1.8,1.5-.6,2.6-1.4,3.5-2.3.6-.6.9-1.2,1.2-1.9,0,0,.1-.4.3-.9h-4.2v-1.8h7.2v-2.8h-4.3c0,.1,0,.2-.2.3-.3.5-.5.9-.7,1.2-.4-.3-1-.6-1.8-.9,1-1.4,1.7-2.9,2.3-4.7l2,.5c-.2.4-.3.8-.5,1.3l-.2.5h0ZM306.8,54.4c5.3-.3,9-1.2,11.1-2.8,1.4-1,2.3-2.6,2.8-4.8.2-1,.4-2.3.4-3.8h2.6c-.4,3.3-.9,5.6-1.7,7-.9,1.8-2.4,3.3-4.5,4.3-1.3.7-3.4,1.3-6.2,1.8-1.2.2-2.5.4-3.7.6-.2-.8-.4-1.6-.8-2.3h0ZM313.5,41.3v9.2h-2.4v-11.3h23.2v11.3h-2.4v-9.2h-18.4ZM325.7,27.5v.2c-.3.4-.6.8-.8,1.2-.4-.3-1-.6-1.8-.9,1-1.4,1.8-2.9,2.3-4.7l2,.5c-.2.4-.4,1.1-.8,1.9h3.2v-2.8h2v2.8h5.7v1.8h-5.7v2.8h6.7v1.8h-4.9v2c0,.9.1,1.5.3,1.7,0,0,.3.2.5.2h1.6c.5,0,.8-.2,1-.6,0-.2.2-.9.3-1.9.9.3,1.6.6,2,.7,0,.7-.2,1.2-.3,1.6-.4,1.3-1.2,1.9-2.5,1.9h-2.4c-1,0-1.8-.3-2.2-.8-.2-.2-.3-.4-.3-.7v-4.1h-2.5c-.4,1.3-.8,2.3-1.4,3-.8,1-2.2,2-4.2,3.1-.2-.5-.6-1.1-1-1.8,1.6-.6,2.7-1.3,3.3-2,.4-.4.7-1.2,1.1-2.3h-3.8v-1.8h6.7v-2.8h-4.1ZM324.3,52.1l1.2-1.9c3.1.9,5.4,1.7,7.1,2.3,1.5.5,3.3,1.3,5.4,2.2l-1.2,2c-3.3-1.6-7.4-3.1-12.5-4.7h0Z"/>
      <path class="st1" d="M352.4,33.1v.2c-1.4,2.7-3,5.2-4.7,7.5-.5-.7-1-1.3-1.6-1.9,3.4-4.2,5.7-8.9,6.7-14.3l2.4.7c-.6,2-1.2,3.9-1.9,5.7h7.9v-7.6h2.3v7.6h13.5v2.1h-13.5v8h11.5v2.1h-11.5v9.7h14.9v2.1h-31.8v-2.1h14.7v-9.7h-10.1v-2.1h10.1v-8h-8.9Z"/>
      <path class="st1" d="M385,34.7l1.2-1.8c2,1,4,2.3,5.9,3.8l-1.3,2c-1.7-1.5-3.6-2.9-5.8-4h0ZM385.2,53.7c1.9-2.5,3.6-6.3,5.1-11.3l2,1.3c-.9,2.4-1.8,4.7-2.7,6.8-.4.9-1.1,2.4-2.3,4.7l-2.1-1.6h0ZM386.9,25.8l1.3-1.7c2.5,1.4,4.4,2.7,5.8,4l-1.5,1.9c-1.4-1.4-3.3-2.8-5.6-4.2h0ZM395.5,24.7h23.1v2.1h-20.9v11.3c-.3,4.3-.6,7.7-1.2,10.3-.6,2.7-1.7,5.3-3.2,7.8-.5-.5-1.2-1-2-1.3,1.5-2.1,2.5-4.6,3.2-7.3.7-2.9,1-7.4,1-13.6v-9.2h0ZM418.4,53.3v2.1h-21.1v-2.1h9.3v-5.5h-7.2v-2.1h7.2v-3.8h2.4v3.8h7.7v2.1h-7.7v5.5h9.4ZM417.9,40.4h-18.9v-2.1h7.6v-4.6h-6.8v-2.1h6.8v-3.5h2.4v3.5h7.7v2.1h-7.7v4.6h8.9v2.1Z"/>
    </g>
  </g>
  <path class="st0" d="M431.2,100.4c1,0,2,.3,3,.8s1.8,1.3,2.3,2.3.8,2,.8,3.1-.3,2.1-.8,3.1-1.3,1.7-2.3,2.3c-1,.5-2,.8-3.1.8s-2.1-.3-3.1-.8-1.7-1.3-2.3-2.3c-.5-1-.8-2-.8-3.1s.3-2.1.8-3.1c.6-1,1.3-1.7,2.3-2.3,1-.5,2-.8,3-.8h.2ZM431.2,101.4c-.9,0-1.7.2-2.5.7-.8.4-1.5,1.1-1.9,1.9s-.7,1.7-.7,2.6.2,1.7.7,2.6c.5.8,1.1,1.4,1.9,1.9s1.7.7,2.6.7,1.7-.2,2.6-.7c.8-.5,1.5-1.1,1.9-1.9s.7-1.7.7-2.6-.2-1.8-.7-2.6c-.5-.8-1.1-1.5-1.9-1.9s-1.7-.7-2.5-.7h-.2ZM428.5,109.9v-6.6h2.3c.8,0,1.3,0,1.7.2.3,0,.6.3.8.6.2.3.3.6.3,1s-.2.9-.5,1.3-.8.6-1.4.6c.2,0,.4.2.6.4.3.3.6.7,1,1.3l.8,1.3h-1.3l-.6-1c-.5-.8-.8-1.3-1.1-1.5-.2-.2-.5-.2-.9-.2h-.6v2.8h-1.1v-.2h0ZM429.6,106.2h1.3c.6,0,1,0,1.3-.3.2-.2.3-.4.3-.7s0-.4-.2-.5c-.1-.2-.3-.3-.5-.3h-2.3v2h.1v-.2Z"/>
</svg>