<?xml version="1.0" encoding="UTF-8"?>
<svg id="_圖層_1" xmlns="http://www.w3.org/2000/svg" version="1.1" xmlns:xlink="http://www.w3.org/1999/xlink" viewBox="0 0 1194.9 117.3">
  <!-- Generator: Adobe Illustrator 30.0.0, SVG Export Plug-In . SVG Version: 2.1.1 Build 123)  -->
  <defs>
    <style>
      .st0, .st1 {
        fill: #0068b6;
      }

      .st2 {
        fill: #fff;
      }

      .st3 {
        fill: url(#_未命名漸層_31);
      }

      .st4 {
        fill: url(#_未命名漸層);
      }

      .st5 {
        isolation: isolate;
      }

      .st6 {
        fill: url(#_未命名漸層_3);
      }

      .st7 {
        fill: #fff697;
      }

      .st1 {
        stroke: #0068b6;
        stroke-width: .8px;
      }
    </style>
    <linearGradient id="_未命名漸層" data-name="未命名漸層" x1="0" y1="-540.8" x2="162.7" y2="-540.8" gradientTransform="translate(0 -482.1) scale(1 -1)" gradientUnits="userSpaceOnUse">
      <stop offset="0" stop-color="#3ebeef"/>
      <stop offset=".5" stop-color="#00a0e8"/>
      <stop offset="1" stop-color="#008cd6"/>
    </linearGradient>
    <linearGradient id="_未命名漸層_31" data-name="未命名漸層 31" x1="464.2" y1="61.4" x2="1007.8" y2="61.4" gradientTransform="translate(0 120) scale(1 -1)" gradientUnits="userSpaceOnUse">
      <stop offset="0" stop-color="#0068b7"/>
      <stop offset=".4" stop-color="#e96ca8"/>
      <stop offset=".5" stop-color="#e96ca8"/>
      <stop offset=".9" stop-color="#0068b7"/>
    </linearGradient>
    <linearGradient id="_未命名漸層_3" data-name="未命名漸層 3" x1="1021.9" y1="658.6" x2="1210.8" y2="658.6" gradientTransform="translate(0 -600)" gradientUnits="userSpaceOnUse">
      <stop offset="0" stop-color="#0068b7"/>
      <stop offset="1" stop-color="#e96ca8"/>
    </linearGradient>
  </defs>
  <g>
    <g>
      <path class="st4" d="M155.8,4.2c-4.6-3-11.8-4.8-22.1-4-32.5,2.5-32.2,18.8-35.6,39.5-3.1,19-6.9-34-58.4-23.8-1.1.2-2.1.5-3,.9-5.6-.9-12.5,3.6-16.6,11.3-3,5.6-3.7,11.5-2.3,16-4.8,2-8.8,8.2-9.8,15.8s-.2,7.5.8,10.6C3.2,72.4-.5,80.2,0,89.1c.7,8.9,5.4,15.9,11.1,17.1,3,6.7,8.5,10.8,15.4,11.1,12.9.6,24.7-6.4,23.5-14-1.1-7.6,4.3-12.6,15.5-10.4,11.3,2.3,14.5,7.8,24.8,17.4,10.6,9.8,30.3,7.6,37.8-7.8,1.6-3.2.6-14.6,1.9-28,0-.9.2-1.8.3-2.7.4-3.1.9-6.2,1.6-9.4.2-.8.4-1.7.6-2.5,1.1-4.1,2.5-8.2,4.4-12.2,4-8.3,10.2-15.7,19.7-20.9,7.1-3.8,8.8-16-1.2-22.6,0,0,.4,0,.4,0Z"/>
      <g>
        <path class="st7" d="M151.8,4.9c-11.3,3.4-38.7,12.3-31.2,23.2,5.5,8,9.3,15.3,13.5,19.6,4-8.3,10-15.8,19.5-21.1,7.1-3.9,10.9-16.5-1.8-21.7Z"/>
        <path class="st7" d="M129.3,62.5c.2-.8.4-1.7.6-2.5-5.8-2.4-10.8-6.7-10.8-6.7-1.7,3.6,6,7.4,10.2,9.2Z"/>
        <path class="st7" d="M127.5,74.6c0-.9.2-1.8.3-2.7-4.8-2.4-8.5-5.7-8.5-5.7-1.4,3.1,4,6.4,8.3,8.3h-.1Z"/>
      </g>
      <g>
        <path class="st0" d="M146.7,71.8h-4.1v-6.7h4.1v6.7ZM142.6,107.9v-32.3h4.1v32.3s-4.1,0-4.1,0Z"/>
        <path class="st0" d="M179.2,85.5c-1.3-2.3-2.8-4.1-4.6-5.2s-4-1.7-6.5-1.7-6.1,1.3-8.5,3.8c-2.3,2.5-3.5,5.6-3.5,9.4s1.2,6.8,3.5,9.3,5.2,3.7,8.6,3.7,4.7-.6,6.6-1.8c1.9-1.2,3.4-3,4.4-5.2h4.6c-1.3,3.5-3.2,6.2-5.9,8.1s-5.8,2.9-9.5,2.9-8.6-1.7-11.8-5-4.8-7.3-4.8-12,1.6-8.8,4.9-12.1c3.3-3.3,7.2-5,11.9-5s6.6.9,9.3,2.8,4.7,4.5,6,8h-4.7Z"/>
        <path class="st0" d="M221.5,93h-29.1c.3,3.5,1.5,6.3,3.8,8.5s5.1,3.2,8.6,3.2,4.6-.6,6.5-1.9,3.4-3,4.5-5.2h4.7c-1.5,3.6-3.6,6.3-6.3,8.2-2.7,1.9-5.8,2.9-9.3,2.9s-8.7-1.7-11.9-5-4.9-7.4-4.9-12.1,1.6-9,4.8-12.2,7.2-4.8,12.2-4.8,8.8,1.7,11.9,5c3.1,3.3,4.6,7.7,4.6,13v.3h-.1ZM216.9,89.4c-.8-3.6-2.2-6.3-4.3-8.1-2.1-1.8-4.8-2.7-8.2-2.7s-5.8,1-7.9,2.9c-2.2,1.9-3.5,4.6-4,7.9,0,0,24.4,0,24.4,0Z"/>
        <path class="st0" d="M277.9,76.2c-1.9-2.7-4.1-4.6-6.4-5.9-2.4-1.3-5.1-1.9-8.1-1.9-4.8,0-8.8,1.8-12.2,5.3s-5.1,7.7-5.1,12.6,1.7,9.5,5,13.1c3.4,3.5,7.4,5.3,12.2,5.3s5.6-.6,8-1.8c2.4-1.2,4.5-3.1,6.2-5.5h5c-2,3.6-4.6,6.4-7.9,8.4s-7,3-11.1,3c-6.3,0-11.5-2.1-15.7-6.4s-6.3-9.6-6.3-16,.6-5.8,1.7-8.5c1.1-2.7,2.8-5.1,5-7.2,2-2,4.3-3.6,6.8-4.6s5.3-1.6,8.2-1.6c4.2,0,8.1,1,11.5,3.1s6.1,5,8.1,8.8h-5v-.2h0Z"/>
        <path class="st0" d="M315.6,102.8c-1.3,1.9-3,3.3-5.2,4.4s-4.6,1.6-7.1,1.6c-4.7,0-8.7-1.6-11.8-4.9-3.1-3.2-4.7-7.2-4.7-12s1.6-8.9,4.8-12.1,7.2-4.9,12.1-4.9,4.8.5,6.8,1.5c2.1,1,3.8,2.5,5.2,4.4v-5.2h4v32.3h-4v-5.1h0ZM315.6,91.5c0-3.4-1.2-6.4-3.7-9-2.4-2.6-5.3-3.8-8.4-3.8s-6.4,1.3-8.8,3.8c-2.4,2.6-3.7,5.7-3.7,9.5s1.2,6.6,3.6,9.1,5.3,3.7,8.7,3.7,6.1-1.3,8.6-3.9c2.4-2.6,3.7-5.8,3.7-9.4h0Z"/>
        <path class="st0" d="M330.3,107.9h-4.2v-32.3h3.9v3.7c1-1.4,2.1-2.5,3.3-3.1,1.2-.7,2.6-1,4.2-1.1v4.5c-2.6.2-4.4,1-5.6,2.3-1.1,1.3-1.7,3.5-1.7,6.4v19.5h.1Z"/>
        <path class="st0" d="M372.9,93h-29.1c.3,3.5,1.5,6.3,3.8,8.5s5.1,3.2,8.6,3.2,4.6-.6,6.5-1.9,3.4-3,4.5-5.2h4.7c-1.5,3.6-3.6,6.3-6.3,8.2-2.7,1.9-5.8,2.9-9.3,2.9s-8.7-1.7-11.9-5c-3.2-3.3-4.9-7.4-4.9-12.1s1.6-9,4.8-12.2c3.2-3.2,7.2-4.8,12.2-4.8s8.8,1.7,11.9,5,4.6,7.7,4.6,13v.3h-.1ZM368.3,89.4c-.8-3.6-2.2-6.3-4.3-8.1-2.1-1.8-4.8-2.7-8.2-2.7s-5.8,1-7.9,2.9c-2.2,1.9-3.5,4.6-4,7.9,0,0,24.4,0,24.4,0Z"/>
        <path class="st0" d="M409.3,93h-29.1c.3,3.5,1.5,6.3,3.8,8.5s5.1,3.2,8.6,3.2,4.6-.6,6.5-1.9,3.4-3,4.5-5.2h4.7c-1.5,3.6-3.6,6.3-6.3,8.2-2.7,1.9-5.8,2.9-9.3,2.9s-8.7-1.7-11.9-5c-3.2-3.3-4.9-7.4-4.9-12.1s1.6-9,4.8-12.2c3.2-3.2,7.2-4.8,12.2-4.8s8.8,1.7,11.9,5,4.6,7.7,4.6,13v.3h-.1ZM404.7,89.4c-.8-3.6-2.2-6.3-4.3-8.1-2.1-1.8-4.8-2.7-8.2-2.7s-5.8,1-7.9,2.9c-2.2,1.9-3.5,4.6-4,7.9,0,0,24.4,0,24.4,0Z"/>
        <path class="st0" d="M418.1,107.9h-4.2v-32.3h3.9v3.7c1-1.4,2.1-2.5,3.3-3.1,1.2-.7,2.6-1,4.2-1.1v4.5c-2.6.2-4.4,1-5.6,2.3-1.1,1.3-1.7,3.5-1.7,6.4v19.5h.1Z"/>
      </g>
      <g>
        <path class="st1" d="M310.5,25.7h3.4v-2.8h2.1v2.8h5v1.8h-5v2.8h5.6v1.8h-3.5v3.1l3.4-1.7v1.9c-.6.3-1.5.8-2.8,1.4-.8.4-1.6.8-2.3,1.2l-.7-1.6c.3-.3.4-1,.4-2v-2.2h-3.1c-.4,1.5-.9,2.7-1.6,3.5-1.1,1.3-2.5,2.4-4.2,3.3-.2-.4-.5-1-1.2-1.8,1.5-.6,2.6-1.4,3.5-2.3.6-.6.9-1.2,1.2-1.9,0,0,.1-.4.3-.9h-4.2v-1.8h7.2v-2.8h-4.3c0,.1,0,.2-.2.3-.3.5-.5.9-.7,1.2-.4-.3-1-.6-1.8-.9,1-1.4,1.7-2.9,2.3-4.7l2,.5c-.2.4-.3.8-.5,1.3l-.2.5h0ZM306.8,54.4c5.3-.3,9-1.2,11.1-2.8,1.4-1,2.3-2.6,2.8-4.8.2-1,.4-2.3.4-3.8h2.6c-.4,3.3-.9,5.6-1.7,7-.9,1.8-2.4,3.3-4.5,4.3-1.3.7-3.4,1.3-6.2,1.8-1.2.2-2.5.4-3.7.6-.2-.8-.4-1.6-.8-2.3h0ZM313.5,41.2v9.2h-2.4v-11.3h23.2v11.3h-2.4v-9.2h-18.4ZM325.7,27.5v.2c-.3.4-.6.8-.8,1.2-.4-.3-1-.6-1.8-.9,1-1.4,1.8-2.9,2.3-4.7l2,.5c-.2.4-.4,1.1-.8,1.9h3.2v-2.8h2v2.8h5.7v1.8h-5.7v2.8h6.7v1.8h-4.9v2c0,.9.1,1.5.3,1.7,0,0,.3.2.5.2h1.6c.5,0,.8-.2,1-.6,0-.2.2-.9.3-1.9.9.3,1.6.6,2,.7,0,.7-.2,1.2-.3,1.6-.4,1.3-1.2,1.9-2.5,1.9h-2.4c-1,0-1.8-.3-2.2-.8-.2-.2-.3-.4-.3-.7v-4.1h-2.5c-.4,1.3-.8,2.3-1.4,3-.8,1-2.2,2-4.2,3.1-.2-.5-.6-1.1-1-1.8,1.6-.6,2.7-1.3,3.3-2,.4-.4.7-1.2,1.1-2.3h-3.8v-1.8h6.7v-2.8h-4.1ZM324.3,52.1l1.2-1.9c3.1.9,5.4,1.7,7.1,2.3,1.5.5,3.3,1.3,5.4,2.2l-1.2,2c-3.3-1.6-7.4-3.1-12.5-4.7h0Z"/>
        <path class="st1" d="M352.4,33.1v.2c-1.4,2.7-3,5.2-4.7,7.5-.5-.7-1-1.3-1.6-1.9,3.4-4.2,5.7-8.9,6.7-14.3l2.4.7c-.6,2-1.2,3.9-1.9,5.7h7.9v-7.6h2.3v7.6h13.5v2.1h-13.5v8h11.5v2.1h-11.5v9.7h14.9v2.1h-31.8v-2.1h14.7v-9.7h-10.1v-2.1h10.1v-8h-8.9Z"/>
        <path class="st1" d="M385,34.7l1.2-1.8c2,1,4,2.3,5.9,3.8l-1.3,2c-1.7-1.5-3.6-2.9-5.8-4h0ZM385.2,53.7c1.9-2.5,3.6-6.3,5.1-11.3l2,1.3c-.9,2.4-1.8,4.7-2.7,6.8-.4.9-1.1,2.4-2.3,4.7l-2.1-1.6h0ZM386.9,25.8l1.3-1.7c2.5,1.4,4.4,2.7,5.8,4l-1.5,1.9c-1.4-1.4-3.3-2.8-5.6-4.2h0ZM395.5,24.7h23.1v2.1h-20.9v11.3c-.3,4.3-.6,7.7-1.2,10.3-.6,2.7-1.7,5.3-3.2,7.8-.5-.5-1.2-1-2-1.3,1.5-2.1,2.5-4.6,3.2-7.3.7-2.9,1-7.4,1-13.6v-9.2h0ZM418.4,53.2v2.1h-21.1v-2.1h9.3v-5.5h-7.2v-2.1h7.2v-3.8h2.4v3.8h7.7v2.1h-7.7v5.5h9.4ZM417.9,40.4h-18.9v-2.1h7.6v-4.6h-6.8v-2.1h6.8v-3.5h2.4v3.5h7.7v2.1h-7.7v4.6h8.9v2.1Z"/>
      </g>
    </g>
    <path class="st0" d="M431.2,100.3c1,0,2,.3,3,.8s1.8,1.3,2.3,2.3.8,2,.8,3.1-.3,2.1-.8,3.1-1.3,1.7-2.3,2.3c-1,.5-2,.8-3.1.8s-2.1-.3-3.1-.8-1.7-1.3-2.3-2.3c-.5-1-.8-2-.8-3.1s.3-2.1.8-3.1c.6-1,1.3-1.7,2.3-2.3,1-.5,2-.8,3-.8h.2ZM431.2,101.4c-.9,0-1.7.2-2.5.7-.8.4-1.5,1.1-1.9,1.9s-.7,1.7-.7,2.6.2,1.7.7,2.6c.5.8,1.1,1.4,1.9,1.9s1.7.7,2.6.7,1.7-.2,2.6-.7c.8-.5,1.5-1.1,1.9-1.9s.7-1.7.7-2.6-.2-1.8-.7-2.6c-.5-.8-1.1-1.5-1.9-1.9s-1.7-.7-2.5-.7h-.2ZM428.5,109.9v-6.6h2.3c.8,0,1.3,0,1.7.2.3,0,.6.3.8.6.2.3.3.6.3,1s-.2.9-.5,1.3-.8.6-1.4.6c.2,0,.4.2.6.4.3.3.6.7,1,1.3l.8,1.3h-1.3l-.6-1c-.5-.8-.8-1.3-1.1-1.5-.2-.2-.5-.2-.9-.2h-.6v2.8h-1.1v-.2h0ZM429.6,106.2h1.3c.6,0,1,0,1.3-.3.2-.2.3-.4.3-.7s0-.4-.2-.5c-.1-.2-.3-.3-.5-.3h-2.3v2h.1v-.2h0Z"/>
  </g>
  <path class="st3" d="M499.3,80.7h26v6.2h-59.8v-6.2h27.2v-15.5h-20.7v-6.1h20.7v-13h-15.4c-1.9,4.3-4.4,8.7-7.4,13.2l-5.7-3.7c3-4.2,5.5-8.4,7.5-12.7,2-4.2,3.6-8.9,4.8-13.9l6.3,1.6c-1,3.3-2,6.4-3,9.2h12.8v-13.3l6.7.2v13.1h22.8v6.2h-22.8v13h20.4v6.1h-20.4v15.5h0ZM543.9,58.2c-1.5-1.6-3.5-3.5-6-5.6s-4.5-3.6-6.2-4.7l3.5-4.6c1.8,1.1,3.9,2.6,6.4,4.5s4.4,3.5,5.8,4.8l-3.5,5.5h0ZM546.4,63.5c-.6,3.1-1.7,7.4-3.4,12.8s-3.1,9.5-4.2,12.4l-6-2.4c1.2-2.8,2.7-6.9,4.3-12.2,1.7-5.3,2.9-9.5,3.6-12.7l5.7,2.1h0ZM546.4,42.4c-1.4-1.5-3.3-3.2-5.6-5.1-2.3-1.9-4.3-3.3-5.8-4.3l3.4-4.8c1.7,1,3.6,2.4,5.9,4,2.2,1.7,4.1,3.2,5.6,4.5l-3.4,5.6h-.1ZM557.4,36.3v17.4c0,5.8-.2,10.8-.7,14.8-.5,4.1-1.3,7.7-2.4,11s-2.7,6.8-4.6,10.4l-5.7-2.9c2.9-5,5-10,6.1-14.8,1.1-4.9,1.7-11.1,1.7-18.8v-22.8h42.2v5.7h-36.6ZM578.2,73.6v8.2h16.1v5.4h-38.8v-5.4h16.4v-8.2h-12.5v-5.2h12.5v-5.9l6.3.3v5.7h12.3v5.2h-12.3ZM558.2,61v-5.4h13.8v-7h-12.2v-5.1h12.2v-6l6.2.3v5.7h12v5.1h-12v7h14.8v5.4h-34.8ZM612.9,66c-1.4-1.4-3.4-2.9-5.8-4.7-2.5-1.8-4.5-3.1-6.1-4.1l3-4.8c1.6.9,3.6,2.1,6,3.7,2.4,1.6,4.3,3,5.7,4.2l-2.8,5.5v.2h0ZM623.8,42h-6.3v-4.5h-15.3v-5.6h15.3v-5.3l6.3.2v5.1h15.9v-5.3l6.3.2v5.1h16.1v5.6h-16.1v3.8h-6.3v-3.8h-15.9v4.5ZM612.7,68.9l3.1,1.3c-.7,3-1.6,6.2-2.8,9.7s-2.4,6.8-3.7,9.9l-5.6-2c1.2-2.8,2.4-6,3.6-9.6,1.2-3.6,2.2-7,3.1-10.3l2.3,1h0ZM607,40c1.7,1,3.7,2.2,6.1,3.7,2.3,1.5,4.1,2.7,5.4,3.7l-2.9,5.7c-1.2-1.3-3-2.8-5.4-4.5s-4.4-3.1-6.2-4l2.9-4.6h.1ZM663.4,62.2l-1.8,5.9c-8.4-1.4-15.7-3.6-21.9-6.5-5.9,2.8-13.4,5.2-22.6,7.2l-2-5.8c7.2-1.4,13.3-3.1,18.3-4.9-2.4-1.5-4.6-3.3-6.8-5.4-2.1,2.1-4.3,4-6.5,5.6l-3.8-4.5c2.9-2.1,5.7-4.5,8.4-7.4s4.7-5.6,5.9-8.1l5.5,2.3c-.5.9-1.2,2.1-2.1,3.4h22.8v4.9c-3.2,3.7-6.8,6.8-10.8,9.3,5.1,1.7,11,3,17.5,3.9h-.1ZM628.3,89.6h-6.2v-21.4h33.5v21.4h-6.1v-3.1h-21.3v3.1h0ZM649.5,81.5v-8.2h-21.3v8.2h21.3ZM630.4,48.9c2.4,2.6,5.4,4.8,9,6.6,3.8-1.9,7-4.1,9.7-6.6h-18.7ZM670.1,87.2c1.5-2,3-4.5,4.6-7.6s2.8-5.8,3.8-8.3l5.7,2.2c-.9,2.4-2.1,5.2-3.7,8.5-1.6,3.2-3.1,6-4.6,8.5l-5.7-3.3h0ZM702.6,46.4h21.5v23.5h-45.7v-23.5h17.6v-19.5l6.6.2v6.1h26.4v6.4h-26.4v6.7h0ZM684.6,63.6h33.2v-10.9h-33.2v10.9ZM694.7,73.1c.7,2.1,1.3,4.5,1.9,7.5.6,2.9,1,5.3,1.2,7.2l-6.2,1.6c-.2-2.1-.5-4.6-1.1-7.4-.5-2.8-1.1-5.4-1.7-7.6l5.9-1.2h0ZM708.9,72.5c.9,1.7,1.8,4,2.8,6.8s1.8,5.3,2.3,7.5l-5.8,2c-.3-2-1-4.3-1.9-7.1-1-2.8-1.9-5.3-3-7.5l5.6-1.7h0ZM722.8,71.2c1.4,2.1,2.9,4.5,4.6,7.4,1.7,2.9,3.1,5.4,4.1,7.5l-5.3,3.9c-.8-2.1-2.1-4.7-3.8-7.8-1.7-3-3.4-5.8-5-8.2l5.4-2.8ZM766.6,29.4c-2,4.6-4.4,8.7-7.2,12.5-2.8,3.8-6.1,7.4-10,11h39.7c-.2,3.8-.5,8.4-.9,13.9s-.7,9.6-1,12.3c-.3,2.4-.8,4.3-1.5,5.5s-1.8,2.1-3.2,2.7c-1.4.5-3.4.9-6.1,1.1l-6.4.5-2.1-6.4,6.5-.4c1.7,0,2.9-.4,3.7-.7s1.4-.8,1.8-1.5c.4-.7.6-1.9.8-3.4.2-2.6.5-5.6.7-8.9.3-3.3.5-6.1.6-8.2h-17.9l-.2,3.7c-.3,4.3-1,7.9-2.2,11-1.2,3-3.1,5.9-5.8,8.5-2.7,2.7-6.6,5.5-11.6,8.4l-4.8-5.2c4.6-2.4,8-4.6,10.4-6.7s4-4.3,5-6.7c1-2.4,1.7-5.5,2.2-9.2l.3-3.6h-8.9v-5.7c-2.1,1.8-4.3,3.6-6.8,5.5l-3.9-5.6c5.1-3.5,9.6-7.5,13.4-12,3.8-4.5,6.9-9.4,9.1-14.5l6.2,2.4v-.3h.1ZM779,25.9c2.2,6.1,5.1,11.2,8.8,15.5,3.7,4.3,8.6,8.3,14.7,12.1l-3.6,6.1c-6.5-4.3-11.8-8.8-15.7-13.5s-7.3-10.7-10.2-18l5.9-2.2h0ZM830.9,65.7c-1.4-2.5-3.6-5.5-6.4-9v33.1h-6.1v-31.1c-2.3,5.2-4.9,10.1-7.7,14.5l-4.8-3.7c2.1-3.1,4.4-6.8,6.6-11.1,2.3-4.3,4.1-8.5,5.6-12.7h-8.4v-6.2h8.8v-12.6l6.1.2v12.4h8.7v6.2h-8.7v6.4l1.9-1.7c1.3,1.4,2.8,3.3,4.6,5.6s3.1,4.2,4,5.7l-4.1,4.2v-.2h0ZM869.8,51v6.4h-10.2v32.2h-6.5v-32.2h-11.1c0,5.6-.4,10.1-1,13.7s-1.5,6.9-2.9,9.8-3.3,6.2-5.9,9.7l-5.8-3.4c2.8-3.5,4.8-6.6,6.1-9.3,1.3-2.7,2.2-5.8,2.6-9.3.5-3.5.7-8.3.7-14.5v-21.1c9.8-.7,19.5-2.2,29-4.5l1.7,6.3c-3.8.9-7.9,1.7-12.2,2.4-4.4.7-8.5,1.2-12.3,1.6v12.3h27.8ZM899,74.8c-2.5,2.1-5.5,4.4-9,6.8s-7,4.6-10.4,6.5l-3.3-5.2c3.2-1.8,6.6-3.9,10.2-6.3,3.6-2.4,6.5-4.7,8.7-6.9l3.8,5h0ZM918.5,67.1c-1.4,0-3.7.2-6.6.3v14.1c0,2.1-.2,3.6-.7,4.6s-1.4,1.7-2.6,2.2c-1.2.4-3.1.8-5.7.9l-4.6.4-1.9-6.2,4.7-.3c1.4,0,2.3-.2,2.9-.4.6-.2,1-.5,1.3-.9.2-.4.3-1.1.3-2v-11.9l-16.9.8c-1.8,0-3.8.3-6,.6l-1.2-6.6c1.8-.2,3.7-.5,5.7-1,5-1.7,10.7-4.6,17.1-8.9-7.1.2-12.1.4-15,.5-1.5,0-3.4,0-5.6.3l-1.1-5.7c2.5-.4,4.3-.9,5.5-1.5,3.9-2.1,8-5.1,12.4-9.1l-3.9.2c-4.8.2-9.7.4-14.8.6l-.8-6.2c7.1-.1,16-.5,26.6-1.2s19.2-1.4,25.7-2.1l1,6.2c-6.3.7-16.3,1.4-30,2.2l3.1,1.3c-2.8,2.6-5,4.6-6.6,5.8-1.6,1.3-3.2,2.4-4.7,3.3,4.9,0,10.2-.3,16.1-.6,3.5-2.7,7.1-5.8,10.7-9.3l4.1,4.9c-4.1,3.8-8.6,7.4-13.6,11-4.9,3.5-9.5,6.4-13.7,8.5,4.8,0,12.7-.5,23.7-1.1-2.1-2.2-3.9-4-5.3-5.3l4.5-3.8c2,1.8,4.5,4.2,7.4,7.2s5.2,5.7,7.1,8.1l-4.3,4.5c-.8-1.1-2.1-2.7-3.8-4.8-2.1,0-5.6.2-10.4.3h-.1ZM919.4,69.9c2.7,1.4,6,3.4,10,5.8,4,2.5,7.3,4.6,9.8,6.3l-3.1,5.9c-2.2-1.8-5.3-4-9.4-6.5-4.1-2.6-7.6-4.7-10.5-6.3l3.1-5.2h.1ZM968.5,77.9l.3,2.9-23.1,4.7-1.2-6.3c2.4-.3,6.2-1,11.6-2.1,5.3-1.1,9.3-2,12-2.7l.3,3.5h.1ZM947.2,53.1l-1.3-6.1c.5-.2.9-.4,1.3-.6.3-.2.7-.6,1-1.1,1.1-1.5,2.6-4.1,4.4-7.9,1.9-3.8,3.5-7.3,4.8-10.7l5.7,2.1c-1.3,3.1-2.9,6.5-4.8,10-1.9,3.6-3.4,6.1-4.6,7.6l7-.3,3.3-6.6,5.3,2.7c-1.8,3.8-3.8,7.8-6.2,12s-4.3,7.3-5.8,9.4c1.2,0,3.9-.6,8.1-1.3.4,0,1,0,2-.3v6.2l-8.4,1.3-6.4,1c-1.2,0-2.5.4-3.9.8l-1.5-6c.6-.2,1.2-.5,1.9-.9s1.2-1,1.6-1.6c2.2-3.4,4.5-7,6.7-10.8l-3.6.2-3.4.3c-1.3,0-2.4.3-3.2.6h0ZM1007.8,75.1c0,3.3-.4,5.8-.7,7.6-.2,1.4-.6,2.6-1.1,3.3-.5.8-1.2,1.4-2.2,1.7-1,.4-2.5.7-4.4.9h-4.3c-1.8,0-3.2-.4-4.2-.8s-1.8-1.2-2.3-2.2-.8-2.6-.8-4.5v-21.6l-6.2.3v4.1c0,4.7-.7,8.5-1.6,11.6s-2.4,5.9-4.6,8.3c-2.1,2.5-5.2,5-9.2,7.5l-3.7-5.1c3.7-2.1,6.5-4.1,8.3-6,1.8-1.8,3-4,3.6-6.4.7-2.4,1.1-5.9,1.2-10.5v-3.2h-1.5c-1.1,0-2.9.2-5.5.6l-1.7-5.6c1.2-.4,2.2-1,3-1.7s2.5-2.8,4.3-5.3,3.6-5.1,5.3-7.7h-11.4v-6h15.4c-1.2-3.7-2-6.2-2.6-7.6l6.2-.9c.8,1.8,1.8,4.6,2.9,8.5h15.6v6h-19.4c-1.8,2.8-3.6,5.6-5.4,8.2-1.8,2.6-3.3,4.5-4.4,5.6,7.2-.3,13.4-.6,18.5-.8-1.4-2.1-3.2-4.6-5.2-7.3l4.5-3.1c1.6,1.9,3.6,4.4,5.9,7.7,2.3,3.3,4.1,6.1,5.5,8.5l-4.6,3.9c-.5-1-1.3-2.4-2.5-4.3l-5,.2v20.8c0,.9,0,1.5.2,1.9,0,.4.3.7.7.8.3,0,.9.2,1.7.3h2.5c1.3,0,2.1-.4,2.5-.7.4-.3.7-1.1.8-2.3.3-2,.5-4.2.5-6.8l5.3,1.8v.2h.1Z"/>
  <g>
    <rect class="st6" x="1021.9" y="25.9" width="172.9" height="65.4" rx="12" ry="12"/>
    <g class="st5">
      <path class="st2" d="M1082.1,41v3.5h-41.8v-3.5h18.9c-.4-1.3-.8-2.5-1.1-3.5l4.3-.7c.2.5.6,1.9,1.4,4.2h18.3,0ZM1043.2,80.3v-20.7h36v15c0,1.4-.2,2.4-.5,3.1s-.8,1.2-1.6,1.5c-.8.3-1.9.6-3.4.7l-2.9.3-1.3-3.9,2.7-.3c.8,0,1.4-.2,1.8-.3.4,0,.6-.3.7-.6,0-.3.2-.8.2-1.5v-10.8h-27.4v17.4h-4.3,0ZM1047.2,56.8v-9.4h28v9.4s-28,0-28,0ZM1051.4,53.7h19.3v-3.2h-19.3v3.2ZM1051.9,65.6h18.5v9.8h-18.5v-9.8ZM1056.1,72.1h10.2v-3.2h-10.2v3.2Z"/>
      <path class="st2" d="M1110.7,45.8h15.9v21h-15.9v13.7h-4.6v-13.7h-16v-21h16v-8.8l4.6.2s0,8.6,0,8.6ZM1094.6,50.2v12.2h11.4v-12.2h-11.4ZM1110.7,62.4h11.3v-12.2h-11.3v12.2Z"/>
      <path class="st2" d="M1158.8,74.2h17.8v4.2h-41v-4.2h18.6v-10.6h-14.2v-4.2h14.2v-8.9h-10.6c-1.3,2.9-3,6-5,9l-3.9-2.5c2-2.9,3.8-5.8,5.1-8.7,1.4-2.9,2.5-6.1,3.3-9.5l4.3,1.1c-.7,2.3-1.4,4.4-2.1,6.3h8.8v-9.1h4.6v9.1h15.6v4.3h-15.6v8.9h14v4.2h-14v10.6h0Z"/>
    </g>
  </g>
</svg>